<svg width="24" height="24" viewBox="0 0 24 24" fill="none" xmlns="http://www.w3.org/2000/svg">
<path d="M9.5 2C9.10218 2 8.72064 2.15804 8.43934 2.43934C8.15804 2.72064 8 3.10218 8 3.5V4.5C8 4.89782 8.15804 5.27936 8.43934 5.56066C8.72064 5.84196 9.10218 6 9.5 6H14.5C14.8978 6 15.2794 5.84196 15.5607 5.56066C15.842 5.27936 16 4.89782 16 4.5V3.5C16 3.10218 15.842 2.72064 15.5607 2.43934C15.2794 2.15804 14.8978 2 14.5 2H9.5Z" fill="white"/>
<path fill-rule="evenodd" clip-rule="evenodd" d="M3.879 4.87516C4.448 4.30516 5.242 4.10516 6.5 4.03516V4.49816C6.5 5.29381 6.81607 6.05687 7.37868 6.61948C7.94129 7.18209 8.70435 7.49816 9.5 7.49816H14.5C15.2956 7.49816 16.0587 7.18209 16.6213 6.61948C17.1839 6.05687 17.5 5.29381 17.5 4.49816V4.03516C18.758 4.10516 19.552 4.30516 20.121 4.87516C21 5.75416 21 7.16816 21 9.99616V15.9962C21 18.8252 21 20.2392 20.121 21.1182C19.243 21.9962 17.828 21.9962 15 21.9962H9C6.172 21.9962 4.757 21.9962 3.879 21.1182C3 20.2382 3 18.8252 3 15.9962V9.99616C3 7.16816 3 5.75416 3.879 4.87516ZM12.75 10.9982C12.75 10.7992 12.671 10.6085 12.5303 10.4678C12.3897 10.3272 12.1989 10.2482 12 10.2482C11.8011 10.2482 11.6103 10.3272 11.4697 10.4678C11.329 10.6085 11.25 10.7992 11.25 10.9982V13.2482H9C8.80109 13.2482 8.61032 13.3272 8.46967 13.4678C8.32902 13.6085 8.25 13.7992 8.25 13.9982C8.25 14.1971 8.32902 14.3878 8.46967 14.5285C8.61032 14.6691 8.80109 14.7482 9 14.7482H11.25V16.9982C11.25 17.1971 11.329 17.3878 11.4697 17.5285C11.6103 17.6691 11.8011 17.7482 12 17.7482C12.1989 17.7482 12.3897 17.6691 12.5303 17.5285C12.671 17.3878 12.75 17.1971 12.75 16.9982V14.7482H15C15.1989 14.7482 15.3897 14.6691 15.5303 14.5285C15.671 14.3878 15.75 14.1971 15.75 13.9982C15.75 13.7992 15.671 13.6085 15.5303 13.4678C15.3897 13.3272 15.1989 13.2482 15 13.2482H12.75V10.9982Z" fill="white"/>
</svg>
