<svg width="24" height="24" viewBox="0 0 24 24" fill="none" xmlns="http://www.w3.org/2000/svg">
<path d="M18.3 5.70827C18.2075 5.61557 18.0976 5.54202 17.9766 5.49184C17.8556 5.44166 17.7259 5.41583 17.595 5.41583C17.464 5.41583 17.3343 5.44166 17.2134 5.49184C17.0924 5.54202 16.9825 5.61557 16.89 5.70827L12 10.5883L7.10998 5.69827C7.0174 5.60569 6.90749 5.53225 6.78652 5.48214C6.66556 5.43204 6.53591 5.40625 6.40498 5.40625C6.27405 5.40625 6.1444 5.43204 6.02344 5.48214C5.90247 5.53225 5.79256 5.60569 5.69998 5.69827C5.6074 5.79085 5.53396 5.90076 5.48385 6.02173C5.43375 6.14269 5.40796 6.27234 5.40796 6.40327C5.40796 6.5342 5.43375 6.66385 5.48385 6.78481C5.53396 6.90578 5.6074 7.01569 5.69998 7.10827L10.59 11.9983L5.69998 16.8883C5.6074 16.9809 5.53396 17.0908 5.48385 17.2117C5.43375 17.3327 5.40796 17.4623 5.40796 17.5933C5.40796 17.7242 5.43375 17.8538 5.48385 17.9748C5.53396 18.0958 5.6074 18.2057 5.69998 18.2983C5.79256 18.3909 5.90247 18.4643 6.02344 18.5144C6.1444 18.5645 6.27405 18.5903 6.40498 18.5903C6.53591 18.5903 6.66556 18.5645 6.78652 18.5144C6.90749 18.4643 7.0174 18.3909 7.10998 18.2983L12 13.4083L16.89 18.2983C16.9826 18.3909 17.0925 18.4643 17.2134 18.5144C17.3344 18.5645 17.464 18.5903 17.595 18.5903C17.7259 18.5903 17.8556 18.5645 17.9765 18.5144C18.0975 18.4643 18.2074 18.3909 18.3 18.2983C18.3926 18.2057 18.466 18.0958 18.5161 17.9748C18.5662 17.8538 18.592 17.7242 18.592 17.5933C18.592 17.4623 18.5662 17.3327 18.5161 17.2117C18.466 17.0908 18.3926 16.9809 18.3 16.8883L13.41 11.9983L18.3 7.10827C18.68 6.72827 18.68 6.08827 18.3 5.70827Z" fill="#12161E"/>
</svg>
