<svg width="26" height="26" viewBox="0 0 26 26" fill="none" xmlns="http://www.w3.org/2000/svg">
<path d="M11.9166 19.4984L11.9166 14.0817L6.49992 14.0817C6.2126 14.0817 5.93705 13.9676 5.73389 13.7644C5.53072 13.5612 5.41659 13.2857 5.41659 12.9984C5.41659 12.7111 5.53072 12.4355 5.73389 12.2323C5.93705 12.0292 6.2126 11.915 6.49992 11.915L11.9166 11.915L11.9166 6.49837C11.9166 6.21105 12.0307 5.9355 12.2339 5.73234C12.4371 5.52918 12.7126 5.41504 12.9999 5.41504C13.2872 5.41504 13.5628 5.52918 13.766 5.73234C13.9691 5.9355 14.0833 6.21105 14.0833 6.49837L14.0833 11.915L19.4999 11.915C19.7872 11.915 20.0628 12.0292 20.266 12.2323C20.4691 12.4355 20.5833 12.7111 20.5833 12.9984C20.5833 13.2857 20.4691 13.5612 20.266 13.7644C20.0628 13.9676 19.7872 14.0817 19.4999 14.0817L14.0833 14.0817L14.0833 19.4984C14.0833 19.7857 13.9691 20.0612 13.766 20.2644C13.5628 20.4676 13.2872 20.5817 12.9999 20.5817C12.7126 20.5817 12.4371 20.4676 12.2339 20.2644C12.0307 20.0612 11.9166 19.7857 11.9166 19.4984Z" fill="#2C365E"/>
</svg>
