<svg width="26" height="26" viewBox="0 0 26 26" fill="none" xmlns="http://www.w3.org/2000/svg">
<path d="M16.8302 18.3601L13 14.53L9.16984 18.3601C8.96667 18.5633 8.69112 18.6774 8.40381 18.6774C8.11649 18.6774 7.84094 18.5633 7.63777 18.3601C7.43461 18.157 7.32047 17.8814 7.32047 17.5941C7.32047 17.3068 7.43461 17.0312 7.63777 16.8281L11.4679 12.9979L7.63777 9.16773C7.43461 8.96456 7.32047 8.68901 7.32047 8.4017C7.32047 8.11438 7.43461 7.83883 7.63777 7.63566C7.84094 7.4325 8.11649 7.31836 8.40381 7.31836C8.69112 7.31836 8.96667 7.4325 9.16984 7.63566L13 11.4658L16.8302 7.63566C17.0333 7.4325 17.3089 7.31836 17.5962 7.31836C17.8835 7.31836 18.1591 7.4325 18.3622 7.63566C18.5654 7.83883 18.6795 8.11438 18.6795 8.4017C18.6795 8.68901 18.5654 8.96456 18.3622 9.16773L14.5321 12.9979L18.3622 16.8281C18.5654 17.0312 18.6795 17.3068 18.6795 17.5941C18.6795 17.8814 18.5654 18.157 18.3622 18.3601C18.1591 18.5633 17.8835 18.6774 17.5962 18.6774C17.3089 18.6774 17.0333 18.5633 16.8302 18.3601Z" fill="#4D67B3"/>
</svg>
