<svg width="20" height="16" viewBox="0 0 20 16" fill="none" xmlns="http://www.w3.org/2000/svg">
<path d="M18.6266 0.84375H1.37345C1.21079 0.844004 1.05487 0.908749 0.93988 1.02379C0.824886 1.13883 0.760203 1.29477 0.760012 1.45743V2.69199C0.760012 2.74887 0.821692 2.81415 0.872092 2.84055L9.94073 8.02047C9.96396 8.03375 9.9903 8.04062 10.0171 8.04039C10.0444 8.04051 10.0713 8.03322 10.0948 8.01927L18.8894 2.84559C18.9388 2.81799 19.0699 2.74503 19.1191 2.71143C19.1786 2.67087 19.24 2.63415 19.24 2.56143V1.45719C19.2398 1.29457 19.175 1.13869 19.0601 1.0237C18.9451 0.908716 18.7892 0.844004 18.6266 0.84375ZM19.1635 4.55343C19.1399 4.53987 19.1131 4.53281 19.0859 4.53298C19.0587 4.53315 19.0321 4.54054 19.0087 4.55439L14.0318 7.48263C14.0119 7.49419 13.995 7.51006 13.9821 7.52907C13.9692 7.54808 13.9608 7.56975 13.9575 7.59246C13.9541 7.61516 13.956 7.63834 13.9628 7.66025C13.9696 7.68216 13.9813 7.70225 13.997 7.71903L18.9746 13.0847C18.9888 13.1002 19.0061 13.1126 19.0254 13.121C19.0447 13.1295 19.0656 13.1338 19.0867 13.1337C19.1273 13.1336 19.1663 13.1174 19.195 13.0887C19.2238 13.0599 19.2399 13.021 19.24 12.9803V4.68663C19.2401 4.65966 19.233 4.63315 19.2196 4.60977C19.2061 4.58639 19.1868 4.56696 19.1635 4.55343ZM12.5975 8.46591C12.5739 8.44018 12.5422 8.42333 12.5076 8.41818C12.4731 8.41302 12.4378 8.41988 12.4077 8.43759L10.4128 9.61143C10.296 9.67903 10.1635 9.71504 10.0285 9.71593C9.89352 9.71681 9.76062 9.68254 9.64289 9.61647L7.88729 8.61351C7.85895 8.59737 7.8262 8.59067 7.7938 8.59438C7.76139 8.59809 7.73101 8.61202 7.70705 8.63415L1.04033 14.818C1.02285 14.8343 1.00944 14.8545 1.00114 14.877C0.992854 14.8994 0.98992 14.9235 0.992577 14.9473C0.995235 14.971 1.00341 14.9939 1.01645 15.0139C1.02949 15.034 1.04704 15.0507 1.06769 15.0628C1.17137 15.1237 1.27145 15.1528 1.37321 15.1528H18.4499C18.4798 15.1527 18.509 15.1439 18.5339 15.1275C18.5588 15.1111 18.5784 15.0878 18.5903 15.0604C18.6022 15.0331 18.6058 15.0029 18.6007 14.9735C18.5957 14.9441 18.5823 14.9169 18.562 14.895L12.5975 8.46591ZM6.24017 7.90263C6.25778 7.88628 6.27131 7.86603 6.27967 7.8435C6.28803 7.82097 6.29098 7.79679 6.2883 7.77291C6.28561 7.74903 6.27736 7.72611 6.26421 7.706C6.25106 7.68589 6.23337 7.66914 6.21257 7.65711L0.988732 4.67343C0.965419 4.66019 0.93904 4.65331 0.912231 4.65347C0.885423 4.65363 0.859126 4.66082 0.835971 4.67433C0.812815 4.68784 0.793612 4.70719 0.780282 4.73045C0.766952 4.75371 0.759962 4.78006 0.760012 4.80687V12.6357C0.759843 12.6656 0.768445 12.6949 0.784755 12.7199C0.801064 12.745 0.824363 12.7647 0.85177 12.7767C0.879177 12.7886 0.909487 12.7923 0.93895 12.7872C0.968413 12.7821 0.995734 12.7685 1.01753 12.748L6.24017 7.90263Z" fill="#4D67B3"/>
</svg>
