<svg width="16" height="16" viewBox="0 0 16 16" fill="none" xmlns="http://www.w3.org/2000/svg">
<path fill-rule="evenodd" clip-rule="evenodd" d="M3.64152 0.568794C6.53822 0.247902 9.46149 0.247902 12.3582 0.568794C13.9407 0.745461 15.2165 1.99129 15.4024 3.57963C15.7456 6.51685 15.7456 9.48407 15.4024 12.4213C15.2165 14.0096 13.9407 15.2555 12.359 15.433C9.46205 15.7539 6.53849 15.7539 3.64152 15.433C2.05902 15.2555 0.783188 14.0096 0.597355 12.4221C0.254007 9.48463 0.254007 6.51713 0.597355 3.57963C0.783188 1.99129 2.05902 0.745461 3.64152 0.568794ZM12.1665 3.00046C11.9455 3.00046 11.7335 3.08826 11.5773 3.24454C11.421 3.40082 11.3332 3.61278 11.3332 3.83379C11.3332 4.05481 11.421 4.26677 11.5773 4.42305C11.7335 4.57933 11.9455 4.66713 12.1665 4.66713C12.3875 4.66713 12.5995 4.57933 12.7558 4.42305C12.9121 4.26677 12.9999 4.05481 12.9999 3.83379C12.9999 3.61278 12.9121 3.40082 12.7558 3.24454C12.5995 3.08826 12.3875 3.00046 12.1665 3.00046ZM4.04152 8.00046C4.04152 6.95065 4.45856 5.94383 5.20089 5.2015C5.94322 4.45917 6.95004 4.04213 7.99985 4.04213C9.04967 4.04213 10.0565 4.45917 10.7988 5.2015C11.5412 5.94383 11.9582 6.95065 11.9582 8.00046C11.9582 9.05028 11.5412 10.0571 10.7988 10.7994C10.0565 11.5418 9.04967 11.9588 7.99985 11.9588C6.95004 11.9588 5.94322 11.5418 5.20089 10.7994C4.45856 10.0571 4.04152 9.05028 4.04152 8.00046Z" fill="white"/>
</svg>
