<svg width="24" height="24" viewBox="0 0 24 24" fill="none" xmlns="http://www.w3.org/2000/svg">
<path d="M20.6266 4.8457H3.37345C3.21079 4.84596 3.05487 4.9107 2.93988 5.02574C2.82489 5.14078 2.7602 5.29673 2.76001 5.45938V6.69394C2.76001 6.75082 2.82169 6.8161 2.87209 6.8425L11.9407 12.0224C11.964 12.0357 11.9903 12.0426 12.0171 12.0423C12.0444 12.0425 12.0713 12.0352 12.0948 12.0212L20.8894 6.84754C20.9388 6.81994 21.0699 6.74698 21.1191 6.71338C21.1786 6.67282 21.24 6.6361 21.24 6.56338V5.45914C21.2398 5.29653 21.175 5.14064 21.0601 5.02566C20.9451 4.91067 20.7892 4.84596 20.6266 4.8457ZM21.1635 8.55538C21.1399 8.54182 21.1131 8.53477 21.0859 8.53494C21.0587 8.5351 21.0321 8.54249 21.0087 8.55634L16.0318 11.4846C16.0119 11.4961 15.995 11.512 15.9821 11.531C15.9692 11.55 15.9608 11.5717 15.9575 11.5944C15.9541 11.6171 15.956 11.6403 15.9628 11.6622C15.9696 11.6841 15.9813 11.7042 15.997 11.721L20.9746 17.0867C20.9888 17.1022 21.0061 17.1146 21.0254 17.123C21.0447 17.1314 21.0656 17.1357 21.0867 17.1356C21.1273 17.1356 21.1663 17.1194 21.195 17.0906C21.2238 17.0619 21.2399 17.0229 21.24 16.9823V8.68858C21.2401 8.66161 21.233 8.63511 21.2196 8.61172C21.2061 8.58834 21.1868 8.56891 21.1635 8.55538ZM14.5975 12.4679C14.5739 12.4421 14.5422 12.4253 14.5076 12.4201C14.4731 12.415 14.4378 12.4218 14.4077 12.4395L12.4128 13.6134C12.296 13.681 12.1635 13.717 12.0285 13.7179C11.8935 13.7188 11.7606 13.6845 11.6429 13.6184L9.88729 12.6155C9.85895 12.5993 9.8262 12.5926 9.7938 12.5963C9.76139 12.6 9.73101 12.614 9.70705 12.6361L3.04033 18.8199C3.02285 18.8363 3.00944 18.8565 3.00114 18.8789C2.99285 18.9014 2.98992 18.9254 2.99258 18.9492C2.99523 18.973 3.00341 18.9958 3.01645 19.0159C3.02949 19.0359 3.04704 19.0527 3.06769 19.0647C3.17137 19.1257 3.27145 19.1547 3.37321 19.1547H20.4499C20.4798 19.1546 20.509 19.1459 20.5339 19.1295C20.5588 19.113 20.5784 19.0897 20.5903 19.0623C20.6022 19.035 20.6058 19.0048 20.6007 18.9755C20.5957 18.9461 20.5823 18.9188 20.562 18.897L14.5975 12.4679ZM8.24017 11.9046C8.25778 11.8882 8.27131 11.868 8.27967 11.8454C8.28803 11.8229 8.29098 11.7987 8.2883 11.7749C8.28561 11.751 8.27736 11.7281 8.26421 11.708C8.25106 11.6878 8.23337 11.6711 8.21257 11.6591L2.98873 8.67538C2.96542 8.66215 2.93904 8.65526 2.91223 8.65542C2.88542 8.65558 2.85913 8.66277 2.83597 8.67628C2.81281 8.68979 2.79361 8.70914 2.78028 8.7324C2.76695 8.75566 2.75996 8.78201 2.76001 8.80882V16.6376C2.75984 16.6675 2.76845 16.6968 2.78475 16.7219C2.80106 16.7469 2.82436 16.7667 2.85177 16.7786C2.87918 16.7906 2.90949 16.7942 2.93895 16.7891C2.96841 16.784 2.99573 16.7704 3.01753 16.7499L8.24017 11.9046Z" fill="#4D67B3"/>
</svg>
