<svg width="18" height="18" viewBox="0 0 18 18" fill="none" xmlns="http://www.w3.org/2000/svg">
<path d="M15.6275 11.988L13.2991 11.7221C13.0254 11.69 12.7479 11.7203 12.4875 11.8108C12.2271 11.9013 11.9906 12.0496 11.7958 12.2446L10.1091 13.9313C7.50709 12.6076 5.39203 10.4925 4.06831 7.89046L5.76414 6.19462C6.15831 5.80046 6.35081 5.25046 6.28664 4.69129L6.02081 2.38129C5.96903 1.93404 5.75449 1.52148 5.41807 1.22225C5.08165 0.923025 4.64688 0.758056 4.19664 0.758792H2.61081C1.57498 0.758792 0.71331 1.62046 0.777476 2.65629C1.26331 10.4846 7.52414 16.7363 15.3433 17.2221C16.3791 17.2863 17.2408 16.4246 17.2408 15.3888V13.803C17.25 12.8771 16.5533 12.098 15.6275 11.988Z" fill="#12161E"/>
</svg>
