<svg width="18" height="18" viewBox="0 0 18 18" fill="none" xmlns="http://www.w3.org/2000/svg">
<path d="M16.23 12.2578L13.69 11.9678C13.3914 11.9327 13.0886 11.9658 12.8046 12.0645C12.5206 12.1633 12.2626 12.3251 12.05 12.5378L10.21 14.3778C7.37144 12.9338 5.0641 10.6264 3.62004 7.78782L5.47004 5.93781C5.90004 5.50781 6.11004 4.90782 6.04004 4.29782L5.75004 1.77782C5.69356 1.2899 5.45951 0.839838 5.0925 0.513408C4.7255 0.186978 4.25121 0.00701243 3.76004 0.00781517H2.03004C0.900041 0.00781517 -0.0399593 0.947815 0.0300407 2.07782C0.560041 10.6178 7.39004 17.4378 15.92 17.9678C17.05 18.0378 17.99 17.0978 17.99 15.9678V14.2378C18 13.2278 17.24 12.3778 16.23 12.2578Z" fill="#4D67B3"/>
</svg>
