<svg width="18" height="15" viewBox="0 0 18 15" fill="none" xmlns="http://www.w3.org/2000/svg">
<path fill-rule="evenodd" clip-rule="evenodd" d="M15.4808 0.691638C15.6867 0.604963 15.9121 0.57507 16.1335 0.605069C16.355 0.635067 16.5643 0.723861 16.7397 0.862209C16.9152 1.00056 17.0503 1.1834 17.1311 1.39171C17.2119 1.60001 17.2354 1.82617 17.1991 2.04664L15.3091 13.5108C15.1258 14.6166 13.9125 15.2508 12.8983 14.7C12.05 14.2391 10.79 13.5291 9.65664 12.7883C9.08998 12.4175 7.35414 11.23 7.56748 10.385C7.75081 9.66247 10.6675 6.94747 12.3341 5.3333C12.9883 4.69914 12.69 4.3333 11.9175 4.91664C9.99914 6.36497 6.91914 8.56747 5.90081 9.18747C5.00248 9.73414 4.53414 9.82747 3.97414 9.73414C2.95248 9.56414 2.00498 9.30081 1.23164 8.97997C0.186642 8.54664 0.237476 7.10997 1.23081 6.69164L15.4808 0.691638Z" fill="white"/>
</svg>
