<svg width="16" height="16" viewBox="0 0 16 16" fill="none" xmlns="http://www.w3.org/2000/svg">
<path d="M9.49134 0.199446L9.01634 0.132779C7.58878 -0.0733395 6.13205 0.130575 4.81595 0.720751C3.49986 1.31093 2.37864 2.26305 1.58301 3.46611C0.736471 4.6161 0.231829 5.98173 0.127157 7.40585C0.0224855 8.82998 0.322038 10.2547 0.991341 11.5161C1.05984 11.6425 1.10248 11.7813 1.11679 11.9244C1.1311 12.0675 1.11678 12.212 1.07467 12.3494C0.733008 13.5244 0.416341 14.7078 0.0830078 15.9494L0.499674 15.8244C1.62467 15.5244 2.74967 15.2244 3.87467 14.9494C4.11213 14.9001 4.35894 14.9233 4.58301 15.0161C5.59234 15.5087 6.69536 15.7797 7.81805 15.8109C8.94074 15.8422 10.0571 15.6329 11.0923 15.1971C12.1274 14.7614 13.0574 14.1093 13.8198 13.2845C14.5821 12.4598 15.1593 11.4815 15.5125 10.4154C15.8656 9.34925 15.9867 8.21989 15.8675 7.10312C15.7483 5.98634 15.3916 4.90798 14.8213 3.94041C14.251 2.97284 13.4804 2.13844 12.5611 1.49322C11.6418 0.847991 10.5951 0.406866 9.49134 0.199446ZM11.5913 11.1328C11.2885 11.4039 10.9191 11.59 10.521 11.672C10.1228 11.7539 9.71003 11.7289 9.32467 11.5994C7.5788 11.1071 6.06405 10.0116 5.04967 8.50778C4.66232 7.97577 4.35099 7.39239 4.12467 6.77445C4.00205 6.41592 3.97994 6.03067 4.06074 5.66047C4.14153 5.29028 4.32215 4.94927 4.58301 4.67445C4.71 4.51237 4.88285 4.3923 5.07905 4.32988C5.27526 4.26745 5.48571 4.26556 5.68301 4.32445C5.84968 4.36611 5.96634 4.60778 6.11634 4.79111C6.23856 5.13556 6.38023 5.47167 6.54134 5.79945C6.66336 5.96653 6.71432 6.17511 6.6831 6.37964C6.65187 6.58417 6.54099 6.76804 6.37467 6.89111C5.99967 7.22445 6.05801 7.49945 6.32467 7.87445C6.91389 8.72405 7.72744 9.39335 8.67467 9.80778C8.94134 9.92445 9.14134 9.94945 9.31634 9.67445C9.39134 9.56611 9.49134 9.47445 9.57468 9.37444C10.058 8.76611 9.90801 8.77445 10.6747 9.10778C10.9191 9.21056 11.1552 9.33 11.383 9.46611C11.608 9.59945 11.9497 9.74111 11.9997 9.94111C12.0478 10.1581 12.0351 10.3841 11.9631 10.5944C11.891 10.8046 11.7624 10.9909 11.5913 11.1328Z" fill="white"/>
</svg>
