<svg width="18" height="12" viewBox="0 0 18 12" fill="none" xmlns="http://www.w3.org/2000/svg">
<path d="M7.33366 8.4974L11.6587 5.9974L7.33366 3.4974V8.4974ZM16.967 1.9724C17.0753 2.36406 17.1503 2.88906 17.2003 3.55573C17.2587 4.2224 17.2837 4.7974 17.2837 5.2974L17.3337 5.9974C17.3337 7.8224 17.2003 9.16406 16.967 10.0224C16.7587 10.7724 16.2753 11.2557 15.5253 11.4641C15.1337 11.5724 14.417 11.6474 13.317 11.6974C12.2337 11.7557 11.242 11.7807 10.3253 11.7807L9.00033 11.8307C5.50866 11.8307 3.33366 11.6974 2.47533 11.4641C1.72533 11.2557 1.24199 10.7724 1.03366 10.0224C0.925326 9.63073 0.850326 9.10573 0.800326 8.43906C0.741992 7.7724 0.716992 7.1974 0.716992 6.6974L0.666992 5.9974C0.666992 4.1724 0.800326 2.83073 1.03366 1.9724C1.24199 1.2224 1.72533 0.739063 2.47533 0.530729C2.86699 0.422396 3.58366 0.347396 4.68366 0.297396C5.76699 0.239062 6.75866 0.214062 7.67533 0.214062L9.00033 0.164062C12.492 0.164062 14.667 0.297396 15.5253 0.530729C16.2753 0.739063 16.7587 1.2224 16.967 1.9724Z" fill="white"/>
</svg>
