<svg width="24" height="24" viewBox="0 0 24 24" fill="none" xmlns="http://www.w3.org/2000/svg">
<path d="M9.5 2C9.10218 2 8.72064 2.15804 8.43934 2.43934C8.15804 2.72064 8 3.10218 8 3.5V4.5C8 4.89782 8.15804 5.27936 8.43934 5.56066C8.72064 5.84196 9.10218 6 9.5 6H14.5C14.8978 6 15.2794 5.84196 15.5607 5.56066C15.842 5.27936 16 4.89782 16 4.5V3.5C16 3.10218 15.842 2.72064 15.5607 2.43934C15.2794 2.15804 14.8978 2 14.5 2H9.5Z" fill="white"/>
<path fill-rule="evenodd" clip-rule="evenodd" d="M6.5 4.03711C5.242 4.10711 4.448 4.30711 3.879 4.87711C3 5.75611 3 7.17011 3 9.99811V15.9981C3 18.8271 3 20.2411 3.879 21.1201C4.757 21.9981 6.172 21.9981 9 21.9981H15C17.828 21.9981 19.243 21.9981 20.121 21.1201C21 20.2401 21 18.8271 21 15.9981V9.99811C21 7.17011 21 5.75611 20.121 4.87711C19.552 4.30711 18.758 4.10711 17.5 4.03711V4.50011C17.5 5.29576 17.1839 6.05882 16.6213 6.62143C16.0587 7.18404 15.2956 7.50011 14.5 7.50011H9.5C8.70435 7.50011 7.94129 7.18404 7.37868 6.62143C6.81607 6.05882 6.5 5.29576 6.5 4.50011V4.03711ZM15.512 12.5481C15.5851 12.4812 15.6441 12.4004 15.6858 12.3105C15.7274 12.2206 15.7509 12.1233 15.7547 12.0242C15.7585 11.9252 15.7427 11.8264 15.7082 11.7335C15.6736 11.6407 15.6209 11.5556 15.5533 11.4832C15.4856 11.4108 15.4043 11.3525 15.314 11.3117C15.2237 11.2709 15.1262 11.2484 15.0271 11.2455C14.9281 11.2426 14.8294 11.2594 14.7369 11.2949C14.6443 11.3303 14.5598 11.3838 14.488 11.4521L10.714 14.9741L9.512 13.8521C9.36628 13.7186 9.17372 13.6479 8.97621 13.6556C8.77869 13.6633 8.59219 13.7486 8.45724 13.893C8.3223 14.0374 8.24983 14.2293 8.25559 14.4269C8.26135 14.6245 8.34487 14.8118 8.488 14.9481L10.203 16.5481C10.3419 16.6776 10.5246 16.7496 10.7145 16.7496C10.9044 16.7496 11.0871 16.6776 11.226 16.5481L15.512 12.5481Z" fill="white"/>
</svg>
