<svg width="24" height="24" viewBox="0 0 24 24" fill="none" xmlns="http://www.w3.org/2000/svg">
<path fill-rule="evenodd" clip-rule="evenodd" d="M20.41 9.86064C20.3517 9.85794 20.2933 9.85694 20.235 9.85764H17.8C15.808 9.85764 14.102 11.4386 14.102 13.5006C14.102 15.5626 15.808 17.1436 17.801 17.1436H20.234C20.2953 17.1443 20.3537 17.143 20.409 17.1396C20.82 17.113 21.2074 16.938 21.4991 16.6472C21.7908 16.3564 21.967 15.9696 21.995 15.5586C21.999 15.4996 21.999 15.4366 21.999 15.3786V11.6226C21.999 11.5646 21.999 11.5016 21.995 11.4426C21.967 11.0319 21.791 10.6452 21.4995 10.3544C21.208 10.0636 20.8208 9.88854 20.41 9.86164M17.587 14.4726C18.1 14.4726 18.517 14.0386 18.517 13.5016C18.517 12.9646 18.1 12.5306 17.587 12.5306C17.074 12.5306 16.658 12.9646 16.658 13.5016C16.658 14.0386 17.073 14.4726 17.587 14.4726Z" fill="white"/>
<path fill-rule="evenodd" clip-rule="evenodd" d="M20.234 18.6C20.2675 18.5988 20.3008 18.6055 20.3312 18.6196C20.3617 18.6337 20.3884 18.6547 20.4092 18.6809C20.43 18.7072 20.4444 18.738 20.4511 18.7708C20.4579 18.8037 20.4568 18.8377 20.448 18.87C20.254 19.562 19.947 20.152 19.454 20.648C18.733 21.375 17.818 21.698 16.688 21.851C15.59 22 14.188 22 12.416 22H10.379C8.608 22 7.205 22 6.107 21.851C4.977 21.698 4.062 21.375 3.341 20.648C2.62 19.923 2.3 19 2.148 17.862C2 16.754 2 15.34 2 13.555V13.445C2 11.66 2 10.245 2.148 9.139C2.3 8 2.62 7.08 3.34 6.351C4.061 5.625 4.976 5.301 6.106 5.149C7.205 5 8.608 5 10.379 5H12.416C14.187 5 15.59 5 16.688 5.149C17.818 5.302 18.733 5.625 19.454 6.351C19.947 6.848 20.254 7.438 20.448 8.131C20.4566 8.16328 20.4575 8.19714 20.4507 8.22984C20.4439 8.26255 20.4295 8.2932 20.4087 8.31935C20.3879 8.3455 20.3613 8.36641 20.3309 8.38042C20.3006 8.39442 20.2674 8.40113 20.234 8.4H17.801C15.067 8.4 12.658 10.577 12.658 13.5C12.658 16.423 15.068 18.6 17.802 18.6H20.234ZM5.614 8.886C5.51879 8.88639 5.42459 8.90554 5.33678 8.94233C5.24897 8.97913 5.16927 9.03287 5.10222 9.10047C5.03518 9.16807 4.98211 9.24821 4.94604 9.33633C4.90997 9.42444 4.89161 9.51879 4.892 9.614C4.892 10.017 5.215 10.343 5.614 10.343H9.47C9.87 10.343 10.193 10.017 10.193 9.614C10.1935 9.42163 10.1177 9.2369 9.98213 9.10041C9.84657 8.96391 9.66237 8.88679 9.47 8.886H5.614Z" fill="white"/>
<path d="M7.77698 4.02434L9.73498 2.58134C10.246 2.20376 10.8646 2 11.5 2C12.1353 2 12.754 2.20376 13.265 2.58134L15.234 4.03234C14.41 4.00034 13.49 4.00034 12.483 4.00034H10.313C9.39098 4.00034 8.54398 4.00034 7.77698 4.02434Z" fill="white"/>
</svg>
