<svg width="24" height="24" viewBox="0 0 24 24" fill="none" xmlns="http://www.w3.org/2000/svg">
<path d="M2.436 5.14604C2 5.64204 2 6.49404 2 8.19604V17.59C2 18.796 2 19.399 2.315 19.853C2.629 20.307 3.179 20.498 4.279 20.879L5.573 21.328C6.274 21.571 6.813 21.758 7.266 21.878C7.562 21.957 7.833 21.725 7.833 21.419V6.26904C7.82954 6.1476 7.78597 6.03072 7.70908 5.93665C7.6322 5.84257 7.52633 5.77661 7.408 5.74904C7.019 5.65004 6.551 5.48804 5.91 5.26604C4.357 4.72704 3.58 4.45804 2.99 4.73104C2.77883 4.82992 2.59025 4.97118 2.436 5.14604ZM12.62 3.48004L11.084 4.54504C10.529 4.93004 10.121 5.21304 9.774 5.41404C9.69257 5.46011 9.6245 5.52654 9.57646 5.60683C9.52843 5.68712 9.50208 5.77851 9.5 5.87204V20.919C9.5 21.289 9.884 21.521 10.196 21.321C10.531 21.107 10.915 20.841 11.38 20.519L12.916 19.454C13.471 19.069 13.879 18.786 14.226 18.585C14.3074 18.539 14.3755 18.4725 14.4235 18.3923C14.4716 18.312 14.4979 18.2206 14.5 18.127V3.07904C14.5 2.70804 14.116 2.47704 13.804 2.67604C13.469 2.89104 13.085 3.15704 12.62 3.48004ZM19.72 3.11904L18.427 2.67104C17.726 2.42804 17.187 2.24104 16.734 2.12104C16.438 2.04204 16.167 2.27404 16.167 2.58004V17.73C16.1705 17.8515 16.214 17.9684 16.2909 18.0624C16.3678 18.1565 16.4737 18.2225 16.592 18.25C16.981 18.349 17.449 18.51 18.09 18.733C19.643 19.272 20.42 19.541 21.01 19.268C21.2212 19.1692 21.4097 19.0279 21.564 18.853C22 18.357 22 17.505 22 15.803V6.40904C22 5.20304 22 4.59904 21.685 4.14604C21.371 3.69204 20.821 3.50104 19.721 3.12004" fill="white"/>
</svg>
