<svg width="24" height="24" viewBox="0 0 24 24" fill="none" xmlns="http://www.w3.org/2000/svg">
<path d="M7 4.83023C7 6.37723 8.726 8.00823 10.15 9.09023C10.949 9.69623 11.348 10.0002 12 10.0002C12.652 10.0002 13.051 9.69623 13.85 9.09023C15.274 8.00723 17 6.37623 17 4.83023C17 2.04023 14.25 0.997229 12 3.15323C9.75 0.997229 7 2.04023 7 4.83023ZM6.26 21.3882H6C5.057 21.3882 4.586 21.3882 4.293 21.0952C4 20.8042 4 20.3322 4 19.3892V18.2772C4 17.7592 4 17.5002 4.133 17.2682C4.266 17.0362 4.467 16.9202 4.869 16.6862C7.515 15.1472 11.272 14.2812 13.779 15.7762C13.9477 15.8769 14.0977 15.9996 14.229 16.1442C14.3636 16.2913 14.4672 16.4639 14.5339 16.6517C14.6006 16.8396 14.6289 17.0389 14.6171 17.2379C14.6054 17.4368 14.5538 17.6315 14.4655 17.8102C14.3772 17.9889 14.2539 18.148 14.103 18.2782C13.9828 18.3924 13.836 18.4749 13.676 18.5182C13.796 18.5042 13.911 18.4886 14.021 18.4712C14.932 18.3262 15.697 17.8382 16.397 17.3092L18.205 15.9442C18.5277 15.71 18.9163 15.5839 19.315 15.5839C19.7137 15.5839 20.1023 15.71 20.425 15.9442C20.998 16.3772 21.174 17.0902 20.811 17.6722C20.388 18.3502 19.792 19.2172 19.22 19.7472C18.648 20.2772 17.794 20.7512 17.098 21.0872C16.326 21.4602 15.474 21.6742 14.607 21.8152C12.849 22.0992 11.017 22.0552 9.277 21.6972C8.28432 21.4929 7.27349 21.3887 6.26 21.3882Z" fill="white"/>
</svg>
