<svg width="24" height="24" viewBox="0 0 24 24" fill="none" xmlns="http://www.w3.org/2000/svg">
<path fill-rule="evenodd" clip-rule="evenodd" d="M17.5 11C15.379 11 14.318 11 13.659 10.341C13 9.682 13 8.621 13 6.5C13 4.379 13 3.318 13.659 2.659C14.318 2 15.379 2 17.5 2C19.621 2 20.682 2 21.341 2.659C22 3.318 22 4.379 22 6.5C22 8.621 22 9.682 21.341 10.341C20.682 11 19.621 11 17.5 11ZM16.045 8.216C15.28 7.546 14.5 6.652 14.5 5.798C14.5 4.025 16.15 3.363 17.5 4.733C18.85 3.363 20.5 4.025 20.5 5.798C20.5 6.652 19.72 7.545 18.955 8.216C18.359 8.739 18.061 9 17.5 9C16.94 9 16.641 8.739 16.045 8.216Z" fill="white"/>
<path d="M21.904 16.442C21.987 15.418 21.998 14.168 22 12.699C22 12.5138 21.9265 12.3363 21.7956 12.2054C21.6647 12.0745 21.4871 12.001 21.302 12.001C21.1169 12.001 20.9393 12.0745 20.8084 12.2054C20.6775 12.3363 20.604 12.5138 20.604 12.699C20.603 14.176 20.592 15.357 20.513 16.329C20.429 17.361 20.271 18.092 20.006 18.649L17.373 16.279C16.9037 15.8562 16.3047 15.6052 15.6742 15.5671C15.0437 15.5289 14.4189 15.7059 13.902 16.069L13.625 16.265C13.2666 16.517 12.8308 16.6344 12.3943 16.5966C11.9577 16.5587 11.5486 16.368 11.239 16.058L7.249 12.068C6.86508 11.6842 6.34967 11.4607 5.80715 11.4427C5.26462 11.4247 4.73553 11.6135 4.327 11.971L3.396 12.785V12.001C3.396 9.78895 3.396 8.19995 3.559 6.99095C3.719 5.80095 4.023 5.08395 4.553 4.55395C5.083 4.02395 5.8 3.72095 6.99 3.56095C8.069 3.41595 9.448 3.39995 11.303 3.39795C11.4817 3.38839 11.6498 3.31068 11.7729 3.18082C11.896 3.05097 11.9646 2.87887 11.9646 2.69995C11.9646 2.52104 11.896 2.34893 11.7729 2.21908C11.6498 2.08923 11.4817 2.01152 11.303 2.00195C9.474 2.00395 7.973 2.02195 6.804 2.17895C5.461 2.35895 4.4 2.73595 3.568 3.56895C2.736 4.40195 2.358 5.46195 2.178 6.80495C2 8.11695 2 9.80095 2 11.948V12.001C2 12.4916 2.00067 12.957 2.002 13.397C2.009 15.126 2.046 16.518 2.245 17.637C2.448 18.777 2.829 19.695 3.567 20.433C4.399 21.266 5.46 21.643 6.803 21.823C8.116 22.001 9.8 22.001 11.947 22.001H12.053C14.201 22.001 15.883 22.001 17.197 21.824C18.541 21.644 19.601 21.267 20.433 20.434C20.723 20.1437 20.969 19.8125 21.163 19.451C21.608 18.626 21.808 17.631 21.904 16.442Z" fill="white"/>
</svg>
